<svg width="120" height="120" viewBox="0 0 120 120" fill="none" xmlns="http://www.w3.org/2000/svg">
<g clip-path="url(#clip0)">
<mask id="mask0" mask-type="alpha" maskUnits="userSpaceOnUse" x="0" y="10" width="120" height="110">
<path d="M60.1659 120C93.1503 120 119.889 95.5173 119.889 65.3164C119.889 35.1156 93.1503 10.6329 60.1659 10.6329C27.1815 10.6329 0.442383 35.1156 0.442383 65.3164C0.442383 95.5173 27.1815 120 60.1659 120Z" fill="white"/>
</mask>
<g mask="url(#mask0)">
<path d="M60.1659 120C93.1503 120 119.889 95.5173 119.889 65.3164C119.889 35.1156 93.1503 10.6329 60.1659 10.6329C27.1815 10.6329 0.442383 35.1156 0.442383 65.3164C0.442383 95.5173 27.1815 120 60.1659 120Z" fill="#E6E6E6"/>
<path fill-rule="evenodd" clip-rule="evenodd" d="M0.442383 10.6329H120.135V120H0.442383V10.6329Z" fill="#8C43FF"/>
</g>
<mask id="mask1" mask-type="alpha" maskUnits="userSpaceOnUse" x="-6" y="-8" width="132" height="128">
<path d="M0.442078 65.3165H-5.53027V-7.59494H125.861V65.3165H119.889C119.889 95.5175 93.1501 120 60.1656 120C27.1811 120 0.442078 95.5175 0.442078 65.3165Z" fill="white"/>
</mask>
<g mask="url(#mask1)">
<mask id="mask2" mask-type="alpha" maskUnits="userSpaceOnUse" x="10" y="8" width="100" height="112">
<path d="M72.1108 74.7089V83.0886H74.1016C93.8922 83.0886 109.936 97.7782 109.936 115.899V120H10.3965V115.899C10.3965 97.7782 26.44 83.0886 46.2306 83.0886H48.2214V74.7089C39.6422 70.9772 33.4757 63.3509 32.4472 54.3256C29.5478 53.9504 27.3181 51.6694 27.3181 48.9114V42.5316C27.3181 39.8223 29.4704 37.5727 32.2951 37.1392V34.3291C32.2951 20.2354 44.7734 8.81012 60.1661 8.81012C75.5587 8.81012 88.037 20.2354 88.037 34.3291V37.1392C90.8617 37.5727 93.014 39.8223 93.014 42.5316V48.9114C93.014 51.6694 90.7843 53.9504 87.885 54.3256C86.8564 63.3509 80.6899 70.9772 72.1108 74.7089Z" fill="white"/>
</mask>
<g mask="url(#mask2)">
<path d="M72.1108 74.7089V83.0886H74.1016C93.8922 83.0886 109.936 97.7782 109.936 115.899V120H10.3965V115.899C10.3965 97.7782 26.44 83.0886 46.2306 83.0886H48.2214V74.7089C39.6422 70.9772 33.4757 63.3509 32.4472 54.3256C29.5478 53.9504 27.3181 51.6694 27.3181 48.9114V42.5316C27.3181 39.8223 29.4704 37.5727 32.2951 37.1392V34.3291C32.2951 20.2354 44.7734 8.81012 60.1661 8.81012C75.5587 8.81012 88.037 20.2354 88.037 34.3291V37.1392C90.8617 37.5727 93.014 39.8223 93.014 42.5316V48.9114C93.014 51.6694 90.7843 53.9504 87.885 54.3256C86.8564 63.3509 80.6899 70.9772 72.1108 74.7089Z" fill="#D0C6AC"/>
<path fill-rule="evenodd" clip-rule="evenodd" d="M-5.53027 8.81012H126.295V120.382H-5.53027V8.81012Z" fill="#FFDBB4"/>
<path fill-rule="evenodd" clip-rule="evenodd" d="M88.0369 51.6456V55.2911C88.0369 69.3848 75.5585 80.8101 60.1659 80.8101C44.7733 80.8101 32.2949 69.3848 32.2949 55.2911V51.6456C32.2949 65.7392 44.7733 77.1646 60.1659 77.1646C75.5585 77.1646 88.0369 65.7392 88.0369 51.6456Z" fill="black" fill-opacity="0.1"/>
</g>
<mask id="mask3" mask-type="alpha" maskUnits="userSpaceOnUse" x="10" y="75" width="100" height="45">
<path d="M48.2214 75.8299V84.4557C48.2214 90.4962 53.5688 95.3924 60.1661 95.3924C66.7633 95.3924 72.1108 90.4962 72.1108 84.4557V75.8299C81.0289 76.7433 87.8977 79.239 88.0348 85.6608C100.904 90.6385 109.936 102.303 109.936 115.899V120H10.3965V115.899C10.3965 102.303 19.428 90.6385 32.2973 85.6608C32.4345 79.239 39.3038 76.7433 48.2214 75.8299Z" fill="white"/>
</mask>
<g mask="url(#mask3)">
<path d="M48.2214 75.8299V84.4557C48.2214 90.4962 53.5688 95.3924 60.1661 95.3924C66.7633 95.3924 72.1108 90.4962 72.1108 84.4557V75.8299C81.0289 76.7433 87.8977 79.239 88.0348 85.6608C100.904 90.6385 109.936 102.303 109.936 115.899V120H10.3965V115.899C10.3965 102.303 19.428 90.6385 32.2973 85.6608C32.4345 79.239 39.3038 76.7433 48.2214 75.8299Z" fill="#B7C1DB"/>
<path fill-rule="evenodd" clip-rule="evenodd" d="M-5.53027 69.8734H126.354V120H-5.53027V69.8734Z" fill="#293347"/>
<path fill-rule="evenodd" clip-rule="evenodd" d="M45.2348 98.0076V120H41.751V96.3722C42.8749 96.9816 44.0383 97.5278 45.2348 98.0076ZM78.5805 96.3722V114.759C78.5805 115.182 78.3969 115.588 78.0703 115.887C77.7436 116.186 77.3005 116.354 76.8385 116.354C76.3765 116.354 75.9335 116.186 75.6068 115.887C75.2801 115.588 75.0966 115.182 75.0966 114.759V98.0076C76.2931 97.5278 77.4566 96.9816 78.5805 96.3722Z" fill="#F4F4F4"/>
<path fill-rule="evenodd" clip-rule="evenodd" d="M60.1606 100.861C43.5088 100.859 27.0693 93.5777 27.0693 84.596C27.0693 79.5539 32.2498 76.9691 39.7407 75.6719C35.2194 77.1985 32.2951 79.7646 32.2951 84.0349C32.2951 93.3261 46.1383 100.859 60.1606 100.861ZM80.5915 75.6719C88.0824 76.9691 93.2629 79.5539 93.2629 84.596C93.2629 93.5782 76.8234 100.859 60.1716 100.861C74.1939 100.859 88.0371 93.3266 88.0371 84.0354C88.0371 79.7646 85.1128 77.1985 80.5915 75.6719Z" fill="black" fill-opacity="0.16"/>
</g>
<mask id="mask4" mask-type="alpha" maskUnits="userSpaceOnUse" x="50" y="59" width="20" height="10">
<path d="M50.7685 60.362C51.2949 64.6876 55.3014 68.0506 60.1661 68.0506C65.0457 68.0506 69.0621 64.6668 69.5687 60.322C69.609 59.9727 69.1827 59.3924 68.6479 59.3924H51.7484C51.2109 59.3924 50.716 59.9291 50.7685 60.362Z" fill="white"/>
</mask>
<g mask="url(#mask4)">
<path d="M50.7685 60.362C51.2949 64.6876 55.3014 68.0506 60.1661 68.0506C65.0457 68.0506 69.0621 64.6668 69.5687 60.322C69.609 59.9727 69.1827 59.3924 68.6479 59.3924H51.7484C51.2109 59.3924 50.716 59.9291 50.7685 60.362Z" fill="black" fill-opacity="0.7"/>
<path fill-rule="evenodd" clip-rule="evenodd" d="M55.1887 54.3797H65.6403C66.3003 54.3797 66.9332 54.6198 67.3999 55.0471C67.8666 55.4744 68.1288 56.0539 68.1288 56.6582V59.3924C68.1288 59.9967 67.8666 60.5762 67.3999 61.0035C66.9332 61.4308 66.3003 61.6709 65.6403 61.6709H55.1887C54.5287 61.6709 53.8957 61.4308 53.4291 61.0035C52.9624 60.5762 52.7002 59.9967 52.7002 59.3924V56.6582C52.7002 56.0539 52.9624 55.4744 53.4291 55.0471C53.8957 54.6198 54.5287 54.3797 55.1887 54.3797Z" fill="white"/>
<path d="M57.6778 74.4304C60.7013 74.4304 63.1524 72.1861 63.1524 69.4177C63.1524 66.6493 60.7013 64.4051 57.6778 64.4051C54.6542 64.4051 52.2031 66.6493 52.2031 69.4177C52.2031 72.1861 54.6542 74.4304 57.6778 74.4304Z" fill="#FF4F6D"/>
<path d="M62.6543 74.4304C65.6779 74.4304 68.129 72.1861 68.129 69.4177C68.129 66.6493 65.6779 64.4051 62.6543 64.4051C59.6308 64.4051 57.1797 66.6493 57.1797 69.4177C57.1797 72.1861 59.6308 74.4304 62.6543 74.4304Z" fill="#FF4F6D"/>
</g>
<path fill-rule="evenodd" clip-rule="evenodd" d="M54.1934 51.6456C54.1934 53.6587 56.8671 55.2911 60.1657 55.2911C63.4643 55.2911 66.1381 53.6587 66.1381 51.6456" fill="black" fill-opacity="0.16"/>
<path fill-rule="evenodd" clip-rule="evenodd" d="M40.3375 43.6471C41.2566 41.9154 43.3259 40.7089 45.7314 40.7089C48.1281 40.7089 50.1913 41.9073 51.1154 43.6284C51.3897 44.1398 50.9993 44.5585 50.6055 44.2481C49.3856 43.2881 47.6525 42.6886 45.7314 42.6886C43.8695 42.6886 42.1856 43.2506 40.9735 44.159C40.53 44.4911 40.0688 44.1534 40.3375 43.6471ZM69.2039 43.6471C70.1229 41.9154 72.1922 40.7089 74.5978 40.7089C76.9945 40.7089 79.0577 41.9073 79.9817 43.6284C80.256 44.1398 79.8656 44.5585 79.4719 44.2481C78.252 43.2881 76.5189 42.6886 74.5978 42.6886C72.7358 42.6886 71.052 43.2506 69.8398 44.159C69.3963 44.4911 68.9351 44.1534 69.2039 43.6471Z" fill="black" fill-opacity="0.6"/>
<path fill-rule="evenodd" clip-rule="evenodd" d="M45.507 32.5742C42.6165 32.6962 37.9442 34.6192 38.0648 37.2876C38.0687 37.3747 38.2086 37.4132 38.2771 37.3463C39.6486 35.9975 49.3835 34.6349 52.8126 35.357C53.1262 35.4228 53.3645 35.1392 53.166 34.9347C51.4628 33.1813 48.0961 32.4623 45.507 32.5742ZM75.3212 32.5742C78.2117 32.6962 82.884 34.6192 82.7634 37.2876C82.7595 37.3747 82.6196 37.4132 82.5511 37.3463C81.1796 35.9975 71.4447 34.6349 68.0156 35.357C67.702 35.4228 67.4637 35.1392 67.6622 34.9347C69.3654 33.1813 72.7321 32.4623 75.3212 32.5742Z" fill="black" fill-opacity="0.6"/>
<mask id="mask5" mask-type="alpha" maskUnits="userSpaceOnUse" x="-6" y="-8" width="132" height="128">
<path d="M-5.53027 -7.59494H125.861V120H-5.53027V-7.59494Z" fill="white"/>
</mask>
<g mask="url(#mask5)">
<mask id="mask6" mask-type="alpha" maskUnits="userSpaceOnUse" x="30" y="0" width="60" height="38">
<path d="M83.632 10.5965C82.2584 9.31139 80.6635 8.22076 79.1124 7.12708C78.7701 6.88607 78.4228 6.65063 78.0877 6.4005C78.0119 6.34329 77.2328 5.8324 77.1393 5.64455C76.9148 5.1919 77.0453 5.5443 77.0763 5.00455C77.115 4.32152 78.6357 2.39341 77.501 1.95139C77.0022 1.75696 76.1118 2.27443 75.6329 2.44557C74.6988 2.77819 73.7468 3.06717 72.7806 3.31139C73.2446 2.46531 74.1288 0.771641 72.4665 1.22481C71.1719 1.57772 69.9653 2.48557 68.6641 2.91291C69.0949 2.26683 70.8164 0.264806 69.2608 0.153413C68.7764 0.11797 67.3679 0.949363 66.847 1.12708C65.2859 1.65822 63.691 2.00151 62.0519 2.27189C56.4788 3.19189 49.9618 2.92962 44.8051 5.25265C40.8302 7.04354 36.9045 9.82278 34.6079 13.3615C32.3948 16.7721 31.567 20.5053 31.1036 24.4137C30.764 27.282 30.7364 30.2471 30.8951 33.1261C30.9471 34.0694 31.0632 38.4172 32.5596 37.1008C33.305 36.4446 33.2995 33.7949 33.4875 32.8982C33.8613 31.1144 34.2208 29.322 34.844 27.5949C35.9417 24.5519 37.2374 23.1327 39.9725 21.0365C41.7282 19.6911 42.9609 17.8734 44.6403 16.5165C45.3952 15.9068 44.8195 15.9706 46.0328 16.0506C46.8473 16.1043 47.6663 16.1246 48.4825 16.1443C50.3721 16.1894 52.2645 16.1777 54.1541 16.1838C57.9598 16.1965 61.7478 16.2456 65.5502 16.0633C67.2396 15.9823 68.9345 15.9382 70.6189 15.7949C71.5607 15.7154 73.2307 15.163 74.006 15.5848C74.715 15.9711 75.4516 17.2324 75.9609 17.7489C77.1636 18.9691 78.5987 19.9013 80.0049 20.9023C82.9386 22.9889 84.4195 23.7873 85.3104 27.0486C86.1979 30.2977 85.9491 33.3119 87.0479 36.5094C87.2414 37.0714 87.7524 38.0405 88.3828 37.1721C88.4995 37.0106 88.4696 36.124 88.4696 35.6137C88.4696 33.5544 89.0392 32.0086 89.032 29.9357C89.0044 23.6324 88.7815 15.4137 83.632 10.5965Z" fill="white"/>
</mask>
<g mask="url(#mask6)">
<path d="M83.632 10.5965C82.2584 9.31139 80.6635 8.22076 79.1124 7.12708C78.7701 6.88607 78.4228 6.65063 78.0877 6.4005C78.0119 6.34329 77.2328 5.8324 77.1393 5.64455C76.9148 5.1919 77.0453 5.5443 77.0763 5.00455C77.115 4.32152 78.6357 2.39341 77.501 1.95139C77.0022 1.75696 76.1118 2.27443 75.6329 2.44557C74.6988 2.77819 73.7468 3.06717 72.7806 3.31139C73.2446 2.46531 74.1288 0.771641 72.4665 1.22481C71.1719 1.57772 69.9653 2.48557 68.6641 2.91291C69.0949 2.26683 70.8164 0.264806 69.2608 0.153413C68.7764 0.11797 67.3679 0.949363 66.847 1.12708C65.2859 1.65822 63.691 2.00151 62.0519 2.27189C56.4788 3.19189 49.9618 2.92962 44.8051 5.25265C40.8302 7.04354 36.9045 9.82278 34.6079 13.3615C32.3948 16.7721 31.567 20.5053 31.1036 24.4137C30.764 27.282 30.7364 30.2471 30.8951 33.1261C30.9471 34.0694 31.0632 38.4172 32.5596 37.1008C33.305 36.4446 33.2995 33.7949 33.4875 32.8982C33.8613 31.1144 34.2208 29.322 34.844 27.5949C35.9417 24.5519 37.2374 23.1327 39.9725 21.0365C41.7282 19.6911 42.9609 17.8734 44.6403 16.5165C45.3952 15.9068 44.8195 15.9706 46.0328 16.0506C46.8473 16.1043 47.6663 16.1246 48.4825 16.1443C50.3721 16.1894 52.2645 16.1777 54.1541 16.1838C57.9598 16.1965 61.7478 16.2456 65.5502 16.0633C67.2396 15.9823 68.9345 15.9382 70.6189 15.7949C71.5607 15.7154 73.2307 15.163 74.006 15.5848C74.715 15.9711 75.4516 17.2324 75.9609 17.7489C77.1636 18.9691 78.5987 19.9013 80.0049 20.9023C82.9386 22.9889 84.4195 23.7873 85.3104 27.0486C86.1979 30.2977 85.9491 33.3119 87.0479 36.5094C87.2414 37.0714 87.7524 38.0405 88.3828 37.1721C88.4995 37.0106 88.4696 36.124 88.4696 35.6137C88.4696 33.5544 89.0392 32.0086 89.032 29.9357C89.0044 23.6324 88.7815 15.4137 83.632 10.5965Z" fill="#1F3140"/>
<path fill-rule="evenodd" clip-rule="evenodd" d="M-5.53027 -7.59494H126.695V120.206H-5.53027V-7.59494Z" fill="#4A312C"/>
</g>
</g>
</g>
</g>
<defs>
<clipPath id="clip0">
<rect width="120" height="120" fill="white"/>
</clipPath>
</defs>
</svg>
